<svg xmlns="http://www.w3.org/2000/svg" xmlns:xlink="http://www.w3.org/1999/xlink" width="500" zoomAndPan="magnify" viewBox="0 0 375 374.999991" height="500" preserveAspectRatio="xMidYMid meet" version="1.0"><defs><clipPath id="fa781b7442"><path d="M 0 14.363281 L 372.75 14.363281 L 372.75 360.863281 L 0 360.863281 Z M 0 14.363281 " clip-rule="nonzero"/></clipPath></defs><g clip-path="url(#fa781b7442)"><path fill="#38b6ff" d="M 340.613281 137.070312 C 307.695312 106.085938 255.0625 95.976562 216.769531 92.953125 C 216.574219 92.9375 216.382812 92.921875 216.183594 92.90625 L 215.847656 92.882812 C 204.363281 92.003906 194.132812 91.734375 185.988281 91.734375 C 176.039062 91.734375 169.191406 92.132812 166.941406 92.28125 L 118.992188 92.28125 C 83.929688 92.28125 52.195312 71.503906 38.175781 39.363281 L 205.585938 39.363281 C 274.460938 39.363281 324.910156 76.613281 341.585938 137.992188 C 341.257812 137.683594 340.9375 137.375 340.613281 137.070312 Z M 328.617188 62.957031 C 298.773438 31.175781 256.226562 14.375 205.585938 14.375 L 0.0117188 14.375 L 16.90625 53.097656 C 33.90625 92.074219 72.386719 117.273438 114.910156 117.273438 L 198.507812 117.273438 L 206.707031 117.5 L 206.980469 117.503906 C 207.167969 117.503906 207.347656 117.507812 207.535156 117.515625 L 207.976562 117.527344 C 211.394531 117.734375 214.878906 118 218.328125 118.304688 C 250.535156 122.988281 269.761719 148.679688 269.761719 187.058594 L 269.761719 187.980469 C 269.761719 231.664062 246.796875 256.722656 206.757812 256.722656 L 176.308594 256.722656 L 176.308594 195.179688 L 176.3125 195.179688 L 176.3125 170.1875 L 72.371094 170.1875 L 72.371094 195.179688 L 151.320312 195.179688 L 151.320312 281.710938 L 206.757812 281.710938 C 232.855469 281.710938 254.914062 273.054688 270.554688 256.675781 C 286.382812 240.101562 294.75 216.347656 294.75 187.980469 L 294.75 187.058594 C 294.75 165.246094 289.792969 146.078125 280.292969 130.726562 C 298.316406 136.980469 312.804688 145.207031 323.503906 155.285156 C 338.75 169.640625 346.390625 188.265625 346.207031 210.644531 C 337.058594 287.773438 282.601562 335.671875 204.019531 335.671875 L 97.363281 335.671875 L 97.363281 220.167969 L 0.0117188 220.167969 L 0.0117188 245.160156 L 72.371094 245.160156 L 72.371094 360.65625 L 204.019531 360.65625 C 254.917969 360.65625 297.855469 343.359375 328.1875 310.640625 C 357.234375 279.304688 372.585938 236.410156 372.585938 186.601562 L 372.585938 185.683594 C 372.585938 136.023438 357.382812 93.582031 328.617188 62.957031 " fill-opacity="1" fill-rule="nonzero"/></g></svg>