<svg xmlns="http://www.w3.org/2000/svg" xmlns:xlink="http://www.w3.org/1999/xlink" width="70" zoomAndPan="magnify" viewBox="0 0 52.5 52.499999" height="70" preserveAspectRatio="xMidYMid meet" version="1.0">
    <defs>
        <clipPath id="fdfde978b9">
            <path d="M 0 1.992188 L 52 1.992188 L 52 50.28125 L 0 50.28125 Z M 0 1.992188 " clip-rule="nonzero"/>
        </clipPath>
    </defs>
    <g clip-path="url(#fdfde978b9)">
        <path 
            fill="#ffffff" 
            d="M 47.230469 19.003906 C 42.667969 14.710938 35.367188 13.308594 30.058594 12.890625 C 30.03125 12.886719 30.003906 12.882812 29.976562 12.882812 L 29.929688 12.878906 C 28.339844 12.757812 26.921875 12.71875 25.792969 12.71875 C 24.410156 12.71875 23.460938 12.773438 23.148438 12.796875 L 16.5 12.796875 C 11.640625 12.796875 7.238281 9.914062 5.296875 5.457031 L 28.507812 5.457031 C 38.058594 5.457031 45.054688 10.621094 47.367188 19.132812 C 47.320312 19.089844 47.273438 19.046875 47.230469 19.003906 Z M 45.566406 8.730469 C 41.429688 4.324219 35.53125 1.992188 28.507812 1.992188 L 0.00390625 1.992188 L 2.347656 7.363281 C 4.703125 12.765625 10.039062 16.261719 15.9375 16.261719 L 27.527344 16.261719 L 28.664062 16.292969 L 28.703125 16.292969 C 28.726562 16.292969 28.753906 16.292969 28.777344 16.292969 L 28.839844 16.296875 C 29.3125 16.324219 29.796875 16.363281 30.273438 16.402344 C 34.742188 17.054688 37.40625 20.617188 37.40625 25.9375 L 37.40625 26.066406 C 37.40625 32.121094 34.222656 35.597656 28.671875 35.597656 L 24.449219 35.597656 L 24.449219 23.597656 L 10.039062 23.597656 L 10.039062 27.0625 L 20.984375 27.0625 L 20.984375 39.0625 L 28.671875 39.0625 C 32.289062 39.0625 35.347656 37.859375 37.515625 35.589844 C 39.710938 33.292969 40.871094 29.996094 40.871094 26.066406 L 40.871094 25.9375 C 40.871094 22.914062 40.183594 20.253906 38.867188 18.125 C 41.367188 18.992188 43.375 20.132812 44.859375 21.53125 C 46.972656 23.523438 48.03125 26.105469 48.007812 29.207031 C 46.738281 39.902344 39.1875 46.542969 28.292969 46.542969 L 13.503906 46.542969 L 13.503906 30.527344 L 0.00390625 30.527344 L 0.00390625 33.992188 L 10.039062 33.992188 L 10.039062 50.007812 L 28.292969 50.007812 C 35.347656 50.007812 41.300781 47.609375 45.507812 43.074219 C 49.535156 38.726562 51.664062 32.78125 51.664062 25.875 L 51.664062 25.746094 C 51.664062 18.859375 49.554688 12.976562 45.566406 8.730469 " 
            fill-opacity="1" fill-rule="nonzero"
        />
    </g>
</svg>